<?xml version="1.0" encoding="UTF-8" standalone="no"?>
<svg
   xmlns:dc="http://purl.org/dc/elements/1.1/"
   xmlns:cc="http://creativecommons.org/ns#"
   xmlns:rdf="http://www.w3.org/1999/02/22-rdf-syntax-ns#"
   xmlns:svg="http://www.w3.org/2000/svg"
   xmlns="http://www.w3.org/2000/svg"
   xmlns:sodipodi="http://sodipodi.sourceforge.net/DTD/sodipodi-0.dtd"
   xmlns:inkscape="http://www.inkscape.org/namespaces/inkscape"
   width="500"
   height="500"
   viewBox="0 0 132.29166 132.29166"
   version="1.1"
   id="svg5"
   inkscape:version="1.0.2 (e86c870879, 2021-01-15)"
   sodipodi:docname="tower-sheet.svg">
  <metadata
     id="metadata10">
    <rdf:RDF>
      <cc:Work
         rdf:about="">
        <dc:format>image/svg+xml</dc:format>
        <dc:type
           rdf:resource="http://purl.org/dc/dcmitype/StillImage" />
        <dc:title></dc:title>
      </cc:Work>
    </rdf:RDF>
  </metadata>
  <sodipodi:namedview
     id="namedview7"
     pagecolor="#ffffff"
     bordercolor="#eeeeee"
     borderopacity="1"
     inkscape:pageshadow="0"
     inkscape:pageopacity="0"
     inkscape:pagecheckerboard="false"
     inkscape:document-units="mm"
     showgrid="false"
     units="px"
     inkscape:zoom="0.67081229"
     inkscape:cx="274.90357"
     inkscape:cy="292.78679"
     inkscape:window-width="1920"
     inkscape:window-height="991"
     inkscape:window-x="-9"
     inkscape:window-y="-9"
     inkscape:window-maximized="1"
     inkscape:current-layer="layer1"
     inkscape:document-rotation="0"
     fit-margin-top="0"
     fit-margin-left="0"
     fit-margin-right="0"
     fit-margin-bottom="0" />
  <defs
     id="defs2" />
  <g
     inkscape:label="Layer 1"
     inkscape:groupmode="layer"
     id="layer1"
     transform="translate(0,4.6234902)">
    <g
       id="g1529"
       transform="matrix(0.84550464,0,0,0.84550464,10.219225,-0.7143077)">
      <path
         id="rect2183"
         style="fill:#1a1a1a;fill-opacity:1;stroke:none;stroke-width:4.0252;stroke-linecap:round;stroke-linejoin:round;stop-color:#000000"
         d="M 10.808594,-17.474609 C 4.8210775,-17.474609 0,-12.653532 0,-6.6660156 v 57.5449216 58.736324 41.84766 l 0.47265625,0.75977 c 0.67125685,33.74605 1.97921355,68.79525 3.40039065,80.01953 5.5669417,43.8357 20.0975331,89.3687 43.4355471,136.05664 40.110425,80.25084 99.928526,143.45454 184.472656,194.9082 9.57318,5.82391 17.66363,10.63433 17.97461,10.67969 1.25571,0.18531 28.92843,-16.97593 46.10156,-28.57617 62.21668,-42.03583 111.45268,-94.978 146.47461,-157.51758 28.00203,-49.9886 47.66153,-106.9327 53.71875,-155.58789 1.488,-11.93205 2.81769,-46.61364 3.48828,-80.00196 L 500,151.46289 V 109.64062 48.269531 -6.6660156 c 0,-5.9875164 -4.8211,-10.8085934 -10.80859,-10.8085934 h -97.24414 c -5.98753,0 -10.8086,4.821077 -10.8086,10.8085934 V 48.269531 H 301.42969 V 1.3339844 c 0,-5.9875162 -4.81913,-10.8085938 -10.80664,-10.8085938 h -81.2461 c -5.98751,0 -10.80664,4.8210776 -10.80664,10.8085938 V 48.269531 H 118.86133 V -6.6660156 c 0,-5.9875164 -4.82108,-10.8085934 -10.8086,-10.8085934 z"
         transform="scale(0.26458333)" />
      <path
         style="fill:#ff7600;fill-opacity:1;stroke-width:0.264583"
         d="m 91.654024,108.08225 c -2.99604,-1.21608 -6.12287,-3.79054 -7.95301,-6.54806 -1.37955,-2.078604 -2.27307,-3.979755 -4.42551,-9.416255 -0.87011,-2.197685 -2.07575,-4.829228 -2.67919,-5.847874 -2.08783,-3.524395 -5.16395,-5.779561 -9.00434,-6.601274 -0.40019,-0.08562 -0.72648,-0.242711 -0.72511,-0.349078 10e-4,-0.106368 0.87485,-1.140198 1.94106,-2.297401 l 1.93857,-2.104004 2.31878,0.770506 c 3.07,1.020128 6.2181,2.923323 8.44068,5.102842 0.99511,0.975833 3.07022,3.536423 4.61136,5.6902 3.43557,4.801299 5.37958,6.953385 8.13143,9.001768 2.35194,1.750698 6.384206,3.830136 9.161766,4.7247 1.00014,0.32211 1.81843,0.66582 1.81843,0.76378 0,0.45643 -2.72998,0.90744 -5.423946,0.89608 -3.41467,-0.0144 -5.91762,-0.56496 -9.44636,-2.077887 l -0.97968,-0.420027 0.81023,1.916544 c 0.44562,1.05411 1.02297,2.39281 1.283,2.9749 0.54135,1.21182 1.25902,2.90043 1.60241,3.77031 0.28071,0.7111 0.21344,0.71348 -1.42057,0.0502 z m -47.09978,-4.10263 c -1.62801,-0.39711 -4.94196,-1.92422 -4.94196,-2.27731 0,-0.11476 0.32742,-0.28908 0.7276,-0.3874 0.44278,-0.10877 2.29812,-1.726067 4.73959,-4.131472 4.43826,-4.372724 4.22757,-4.300262 4.8062,-1.65296 0.15904,0.727606 0.41746,2.208517 0.57426,3.290911 0.26631,1.838311 0.24499,2.045941 -0.32355,3.150721 -0.9991,1.94143 -2.96081,2.64693 -5.58214,2.00751 z m -7.24908,-5.435811 c -1.37021,-0.396007 -4.03203,-2.600925 -5.55421,-4.600831 -3.01528,-3.961593 -4.65134,-8.396206 -4.68543,-12.7 -0.0193,-2.432651 0.043,-2.773743 0.7728,-4.233333 1.0648,-2.1296 2.05736,-2.778125 4.25188,-2.778125 1.41806,0 1.96289,0.155255 3.73702,1.064887 1.14231,0.585689 2.7766,1.690664 3.63175,2.455502 l 1.55482,1.390613 -4.71082,2.960907 c -2.59095,1.628498 -4.5434,3.012705 -4.33878,3.076017 0.20463,0.06331 1.02689,0.236096 1.82726,0.383969 2.12244,0.392131 2.76816,0.696915 4.1237,1.946407 2.69581,2.484908 4.02072,7.259068 2.74554,9.893223 -0.68318,1.411254 -1.48108,1.682511 -3.35553,1.140764 z m 15.69139,-1.624271 c -0.76109,-5.951099 -4.78313,-14.045266 -9.51494,-19.148372 l -1.93278,-2.084438 1.13553,-2.372066 c 0.62454,-1.304637 1.08636,-2.421231 1.02627,-2.481318 -0.0601,-0.06009 -0.61984,0.130424 -1.2439,0.42336 -0.62406,0.292933 -1.86958,0.84161 -2.76783,1.219282 l -1.63317,0.686675 -1.40954,-0.640212 c -0.77524,-0.352115 -1.98281,-0.782547 -2.68349,-0.956514 -0.70067,-0.173968 -1.17692,-0.404325 -1.05833,-0.511907 0.11859,-0.107583 1.22765,-0.58057 2.46458,-1.051084 4.78475,-1.820069 10.09558,-4.112059 14.17329,-6.116749 4.76766,-2.343885 5.48607,-2.481363 7.65483,-1.464884 2.84491,1.333384 5.57585,4.18256 7.26246,7.576876 1.06676,2.146868 1.40854,3.696742 1.29454,5.870437 -0.10145,1.934427 -0.10181,1.935218 -1.99448,4.448312 -2.91266,3.867447 -5.15915,7.605004 -7.82737,13.022683 -1.34163,2.724085 -2.51327,4.956503 -2.60367,4.960923 -0.0904,0.004 -0.24429,-0.617027 -0.342,-1.381004 z m -9.33966,-4.474427 c -0.44789,-2.356784 -1.77315,-4.844706 -3.55872,-6.680827 -0.84932,-0.873366 -1.54422,-1.623648 -1.54422,-1.667293 0,-0.107755 3.69677,-2.47091 4.11848,-2.632737 0.55022,-0.211135 5.40652,7.557262 5.40652,8.648552 0,0.266829 -3.69409,3.944292 -3.97436,3.95647 -0.0759,0.0033 -0.27731,-0.727577 -0.4477,-1.624165 z m 51.12369,-1.178291 c -1.94274,-0.469635 -2.73262,-1.191955 -5.89815,-5.393634 -3.83155,-5.085723 -5.26762,-6.691886 -7.84453,-8.773683 -1.87,-1.51071 -5.13159,-3.131807 -6.30218,-3.132352 -0.89769,-5.29e-4 -0.44425,-0.705694 1.25668,-1.954602 2.01412,-1.47887 2.26614,-1.476462 5.42404,0.05183 1.73967,0.841925 2.57168,1.54301 6.74688,5.685147 6.05093,6.003017 8.58624,7.734575 14.618226,9.983869 0.47294,0.176358 0.85989,0.410789 0.85989,0.520959 0,0.249992 -2.5465,2.166329 -3.43958,2.588416 -0.734786,0.347274 -2.823586,0.846908 -3.439576,0.822733 -0.21828,-0.0086 -1.11005,-0.187976 -1.9817,-0.398688 z m -26.4313,-18.753102 c -1.23511,-4.917003 -4.77839,-9.750425 -8.82667,-12.040531 -0.90034,-0.509323 -1.61106,-0.998487 -1.57938,-1.08703 0.0696,-0.194638 5.64179,-4.394761 6.29211,-4.742796 0.6339,-0.339257 2.53481,0.265885 3.99841,1.272865 3.24914,2.235462 6.42238,7.007796 6.74626,10.1459 0.22873,2.216184 -0.19844,3.165647 -2.11401,4.698791 -0.89981,0.720172 -2.10666,1.795674 -2.6819,2.390005 -0.57523,0.594328 -1.12631,1.080598 -1.2246,1.080598 -0.0983,0 -0.3729,-0.773012 -0.61022,-1.717802 z m 9.35119,-7.211885 c -0.17265,-0.836745 -0.54493,-2.141345 -0.82729,-2.899109 -1.27109,-3.411212 -5.12851,-7.853417 -8.22348,-9.470162 -0.83572,-0.436562 -1.51978,-0.88605 -1.52012,-0.998861 -2.7e-4,-0.112811 0.68491,-0.946249 1.52279,-1.852083 3.99825,-4.32251 6.90128,-8.670044 10.47385,-15.68551 1.89716,-3.72547 2.57048,-4.198365 5.99439,-4.210042 l 2.24896,-0.0077 -0.0952,1.687234 c -0.0524,0.92798 0.007,1.626749 0.13229,1.552821 0.12514,-0.07393 1.03351,-0.62496 2.01861,-1.224514 l 1.79109,-1.090098 1.64849,0.750949 c 4.43709,2.021249 8.165096,5.419418 9.941786,9.062165 1.73874,3.564926 1.77362,3.343079 -0.85594,5.443523 -2.185106,1.745415 -2.239866,1.815512 -1.54411,1.976719 0.39674,0.09192 1.59839,0.18122 2.67035,0.198438 l 1.949,0.0313 -0.12953,2.579688 c -0.1576,3.138683 -0.72427,5.038002 -1.86351,6.245952 -0.90466,0.959221 -1.09514,1.026284 -5.741426,2.021528 -5.62051,1.203925 -10.56861,2.994086 -15.81392,5.721278 -1.78542,0.928291 -3.29502,1.687804 -3.35468,1.687804 -0.0597,0 -0.24972,-0.68461 -0.42237,-1.521354 z"
         id="path935" />
    </g>
  </g>
</svg>
